<svg width="2891" height="808" viewBox="0 0 2891 808" fill="none" xmlns="http://www.w3.org/2000/svg">
<path d="M2397 434.208L2541 401.5L2534.1 739.917L2397 807.5V434.208Z" fill="#2563EB"/>
<path d="M2750.24 245.002C2766.24 220.469 2786.24 201.269 2810.24 187.402C2834.24 173.002 2860.91 165.802 2890.24 165.802V310.602H2852.64C2818.51 310.602 2792.91 318.069 2775.84 333.002C2758.78 347.402 2750.24 373.002 2750.24 409.802V617.002H2613.44V170.602H2750.24V245.002Z" fill="black"/>
<path d="M2307.27 623.403C2263.54 623.403 2224.07 614.069 2188.87 595.403C2154.2 576.736 2126.74 550.069 2106.47 515.403C2086.74 480.736 2076.87 440.203 2076.87 393.803C2076.87 347.936 2087 307.669 2107.27 273.003C2127.54 237.803 2155.27 210.869 2190.47 192.203C2225.67 173.536 2265.14 164.203 2308.87 164.203C2352.6 164.203 2392.07 173.536 2427.27 192.203C2462.47 210.869 2490.2 237.803 2510.47 273.003C2530.74 307.669 2540.87 347.936 2540.87 393.803C2540.87 439.669 2530.47 480.203 2509.67 515.403C2489.4 550.069 2465.73 588.336 2430 607.002C2394.8 625.669 2351 623.403 2307.27 623.403ZM2307.27 505.003C2333.4 505.003 2355.54 495.403 2373.67 476.203C2392.34 457.003 2401.67 429.536 2401.67 393.803C2401.67 358.069 2392.6 330.603 2374.47 311.403C2356.87 292.203 2335 282.603 2308.87 282.603C2282.2 282.603 2260.07 292.203 2242.47 311.403C2224.87 330.069 2216.07 357.536 2216.07 393.803C2216.07 429.536 2224.6 457.003 2241.67 476.203C2259.27 495.403 2281.14 505.003 2307.27 505.003Z" fill="#2563EB"/>
<path d="M1797.89 623.403C1754.16 623.403 1714.69 614.069 1679.49 595.403C1644.83 576.736 1617.36 550.069 1597.09 515.403C1577.36 480.736 1567.49 440.203 1567.49 393.803C1567.49 347.936 1577.63 307.669 1597.89 273.003C1618.16 237.803 1645.89 210.869 1681.09 192.203C1716.29 173.536 1755.76 164.203 1799.49 164.203C1843.23 164.203 1882.69 173.536 1917.89 192.203C1953.09 210.869 1980.83 237.803 2001.09 273.003C2021.36 307.669 2031.49 347.936 2031.49 393.803C2031.49 439.669 2021.09 480.203 2000.29 515.403C1980.03 550.069 1952.03 576.736 1916.29 595.403C1881.09 614.069 1841.63 623.403 1797.89 623.403ZM1797.89 505.003C1824.03 505.003 1846.16 495.403 1864.29 476.203C1882.96 457.003 1892.29 429.536 1892.29 393.803C1892.29 358.069 1883.23 330.603 1865.09 311.403C1847.49 292.203 1825.63 282.603 1799.49 282.603C1772.83 282.603 1750.69 292.203 1733.09 311.403C1715.49 330.069 1706.69 357.536 1706.69 393.803C1706.69 429.536 1715.23 457.003 1732.29 476.203C1749.89 495.403 1771.76 505.003 1797.89 505.003Z" fill="black"/>
<path d="M1541.2 526V642H1471.6C1422 642 1383.33 630 1355.6 606C1327.87 581.467 1314 541.734 1314 486.8V309.2H1259.6V195.6H1314V141.2L1345.5 116.148L1382.4 86.8003L1450.8 31.5V195.6H1540.4V309.2H1450.8V488.4C1450.8 501.734 1454 511.334 1460.4 517.2C1466.8 523.067 1477.47 526 1492.4 526H1541.2Z" fill="black"/>
<path d="M1005.2 623.403C966.267 623.403 931.6 616.736 901.2 603.403C870.8 590.069 846.8 571.936 829.2 549.003C934.8 470.603 936.933 499.403 934.8 470.603C936.4 486.069 943.6 498.603 956.4 508.203C969.2 517.803 984.933 522.603 1003.6 522.603C1020.67 522.603 1033.73 519.403 1042.8 513.003C1052.4 506.069 1057.2 497.269 1057.2 486.603C1057.2 473.803 1050.53 464.469 1037.2 458.603C1023.87 452.203 1002.27 445.269 972.4 437.803C940.4 430.336 913.733 422.603 892.4 414.603C871.067 406.069 852.667 393.003 837.2 375.403C821.733 357.269 814 333.003 814 302.603C814 277.003 820.933 253.803 834.8 233.003C849.2 211.669 870 194.869 897.2 182.603C924.933 170.336 957.733 164.203 995.6 164.203C1051.6 164.203 1095.6 178.069 1127.6 205.803C1160.13 233.536 1146 223 1161.2 235.5L1057.2 316.203C1055.07 300.736 1048.13 288.469 1036.4 279.403C1025.2 270.336 1010.27 265.803 991.6 265.803C975.6 265.803 963.333 269.003 954.8 275.403C946.267 281.269 942 289.536 942 300.203C942 313.003 948.667 322.603 962 329.003C975.867 335.403 997.2 341.803 1026 348.203C1059.07 356.736 1086 365.269 1106.8 373.803C1127.6 381.803 1145.73 395.136 1161.2 413.803C1177.2 431.936 1185.47 456.469 1186 487.403C1186 513.536 1178.53 537.003 1163.6 557.803C1149.2 578.069 1128.13 594.069 1100.4 605.803C1073.2 617.536 1041.47 623.403 1005.2 623.403Z" fill="black"/>
<rect x="100" y="298" width="461" height="165" fill="#1D97FF"/>
<path d="M49.8658 271.685L425.326 38.4611L524.526 198.159L149.065 431.383L49.8658 271.685Z" fill="#2563EB"/>
<path fill-rule="evenodd" clip-rule="evenodd" d="M524.526 198.159L425.326 38.4611L487.642 0.641818L524.526 198.159Z" fill="#2563EB"/>
<path fill-rule="evenodd" clip-rule="evenodd" d="M49.8658 271.685L149.065 431.383L99.8944 463.477L49.8658 271.685Z" fill="#2563EB"/>
<path d="M156.121 616.535L503.386 343.092L619.692 490.797L272.427 764.24L156.121 616.535Z" fill="#2563EB"/>
<path fill-rule="evenodd" clip-rule="evenodd" d="M619.692 490.797L503.386 343.092L561.121 298.592L619.692 490.797Z" fill="#2563EB"/>
<path fill-rule="evenodd" clip-rule="evenodd" d="M156.121 616.535L272.427 764.24L227.121 801.592L156.121 616.535Z" fill="#2563EB"/>
</svg>
